{
    "asset" : {
        "generator" : "Khronos glTF Blender I/O v1.5.17",
        "version" : "2.0"
    },
    "scene" : 0,
    "scenes" : [
        {
            "name" : "Scene",
            "nodes" : [
                0
            ]
        }
    ],
    "nodes" : [
        {
            "mesh" : 0,
            "name" : "Bishop",
            "scale" : [
                0.4997366666793823,
                0.4997366666793823,
                0.4997366666793823
            ]
        }
    ],
    "materials" : [
        {
            "doubleSided" : true,
            "name" : "Black.001",
            "pbrMetallicRoughness" : {
                "baseColorFactor" : [
                    0.5,
                    0,
                    0.5,
                    0
                ],
                "metallicFactor" : 0,
                "roughnessFactor" : 0.690034806728363
            }
        }
    ],
    "meshes" : [
        {
            "name" : "Cylinder.009",
            "primitives" : [
                {
                    "attributes" : {
                        "POSITION" : 0
                    },
                    "indices" : 1,
                    "material" : 0
                }
            ]
        }
    ],
    "accessors" : [
        {
            "bufferView" : 0,
            "componentType" : 5126,
            "count" : 2774,
            "max" : [
                0.5651691555976868,
                2.478951930999756,
                0.5651693940162659
            ],
            "min" : [
                -0.5651693940162659,
                0,
                -0.5651693940162659
            ],
            "type" : "VEC3"
        },
        {
            "bufferView" : 1,
            "componentType" : 5123,
            "count" : 16632,
            "type" : "SCALAR"
        }
    ],
    "bufferViews" : [
        {
            "buffer" : 0,
            "byteLength" : 33288,
            "byteOffset" : 0
        },
        {
            "buffer" : 0,
            "byteLength" : 33264,
            "byteOffset" : 33288
        }
    ],
    "buffers" : [
        {
            "byteLength" : 66552,
            "uri" : "data:application/octet-stream;base64,"
        }
    ]
}
