{
    "asset" : {
        "generator" : "Khronos glTF Blender I/O v1.5.17",
        "version" : "2.0"
    },
    "scene" : 0,
    "scenes" : [
        {
            "name" : "Scene",
            "nodes" : [
                0
            ]
        }
    ],
    "nodes" : [
        {
            "mesh" : 0,
            "name" : "Pawn.001",
            "scale" : [
                0.5694488883018494,
                0.5694488883018494,
                0.5694488883018494
            ]
        }
    ],
    "materials" : [
        {
            "doubleSided" : true,
            "name" : "Black.001",
            "pbrMetallicRoughness" : {
                "baseColorFactor" : [
                    0.05221778154373169,
                    0.05221778154373169,
                    0.05221778154373169,
                    0
                ],
                "metallicFactor" : 0,
                "roughnessFactor" : 0.690034806728363
            }
        }
    ],
    "meshes" : [
        {
            "name" : "Cylinder.003",
            "primitives" : [
                {
                    "attributes" : {
                        "POSITION" : 0
                    },
                    "indices" : 1,
                    "material" : 0
                }
            ]
        }
    ],
    "accessors" : [
        {
            "bufferView" : 0,
            "componentType" : 5126,
            "count" : 1858,
            "max" : [
                0.4542354345321655,
                1.5309672355651855,
                0.4542354345321655
            ],
            "min" : [
                -0.4542354345321655,
                0,
                -0.4542354345321655
            ],
            "type" : "VEC3"
        },
        {
            "bufferView" : 1,
            "componentType" : 5123,
            "count" : 11136,
            "type" : "SCALAR"
        }
    ],
    "bufferViews" : [
        {
            "buffer" : 0,
            "byteLength" : 22296,
            "byteOffset" : 0
        },
        {
            "buffer" : 0,
            "byteLength" : 22272,
            "byteOffset" : 22296
        }
    ],
    "buffers" : [
        {
            "byteLength" : 44568,
            "uri" : "data:application/octet-stream;base64,"
        }
    ]
}
