{
    "asset" : {
        "generator" : "Khronos glTF Blender I/O v1.5.17",
        "version" : "2.0"
    },
    "scene" : 0,
    "scenes" : [
        {
            "name" : "Scene",
            "nodes" : [
                0
            ]
        }
    ],
    "nodes" : [
        {
            "mesh" : 0,
            "name" : "King.001",
            "scale" : [
                0.4997366666793823,
                0.4997366666793823,
                0.4997366666793823
            ]
        }
    ],
    "materials" : [
        {
            "doubleSided" : true,
            "name" : "Black.005",
            "pbrMetallicRoughness" : {
                "baseColorFactor" : [
                    0.5,
                    0,
                    0.5,
                    0
                ],
                "metallicFactor" : 0,
                "roughnessFactor" : 0.690034806728363
            }
        }
    ],
    "meshes" : [
        {
            "name" : "Cylinder.006",
            "primitives" : [
                {
                    "attributes" : {
                        "POSITION" : 0
                    },
                    "indices" : 1,
                    "material" : 0
                }
            ]
        }
    ],
    "accessors" : [
        {
            "bufferView" : 0,
            "componentType" : 5126,
            "count" : 3130,
            "max" : [
                0.6359295845031738,
                3.4496424198150635,
                0.6359295845031738
            ],
            "min" : [
                -0.6359296441078186,
                0,
                -0.6359295845031738
            ],
            "type" : "VEC3"
        },
        {
            "bufferView" : 1,
            "componentType" : 5123,
            "count" : 18768,
            "type" : "SCALAR"
        }
    ],
    "bufferViews" : [
        {
            "buffer" : 0,
            "byteLength" : 37560,
            "byteOffset" : 0
        },
        {
            "buffer" : 0,
            "byteLength" : 37536,
            "byteOffset" : 37560
        }
    ],
    "buffers" : [
        {
            "byteLength" : 75096,
            "uri" : "data:application/octet-stream;base64,"
        }
    ]
}
