{
    "asset" : {
        "generator" : "Khronos glTF Blender I/O v1.5.17",
        "version" : "2.0"
    },
    "scene" : 0,
    "scenes" : [
        {
            "name" : "Scene",
            "nodes" : [
                0
            ]
        }
    ],
    "nodes" : [
        {
            "mesh" : 0,
            "name" : "Knight.001",
            "scale" : [
                0.4997366666793823,
                0.4997366666793823,
                0.4997366666793823
            ]
        }
    ],
    "materials" : [
        {
            "doubleSided" : true,
            "name" : "Black.001",
            "pbrMetallicRoughness" : {
                "baseColorFactor" : [
                    0.5,
                     0,
                     0.5,
                    0
                ],
                "metallicFactor" : 0,
                "roughnessFactor" : 0.690034806728363
            }
        }
    ],
    "meshes" : [
        {
            "name" : "Cylinder.001",
            "primitives" : [
                {
                    "attributes" : {
                        "POSITION" : 0
                    },
                    "indices" : 1,
                    "material" : 0
                }
            ]
        }
    ],
    "accessors" : [
        {
            "bufferView" : 0,
            "componentType" : 5126,
            "count" : 5218,
            "max" : [
                0.64146888256073,
                2.2636489868164062,
                0.5985026955604553
            ],
            "min" : [
                -0.5985027551651001,
                0,
                -0.5985026955604553
            ],
            "type" : "VEC3"
        },
        {
            "bufferView" : 1,
            "componentType" : 5123,
            "count" : 31296,
            "type" : "SCALAR"
        }
    ],
    "bufferViews" : [
        {
            "buffer" : 0,
            "byteLength" : 62616,
            "byteOffset" : 0
        },
        {
            "buffer" : 0,
            "byteLength" : 62592,
            "byteOffset" : 62616
        }
    ],
    "buffers" : [
        {
            "byteLength" : 125208,
            "uri" : "data:application/octet-stream;base64,"
        }
    ]
}
