{
    "asset" : {
        "generator" : "Khronos glTF Blender I/O v1.5.17",
        "version" : "2.0"
    },
    "scene" : 0,
    "scenes" : [
        {
            "name" : "Scene",
            "nodes" : [
                0
            ]
        }
    ],
    "nodes" : [
        {
            "mesh" : 0,
            "name" : "Queen",
            "scale" : [
                0.4997366666793823,
                0.4997366666793823,
                0.4997366666793823
            ]
        }
    ],
    "materials" : [
        {
            "doubleSided" : true,
            "name" : "White.001",
            "pbrMetallicRoughness" : {
                "baseColorFactor" : [
                    1,
                    1,
                    1,
                    0
                ],
                "metallicFactor" : 0,
                "roughnessFactor" : 0.690034806728363
            }
        }
    ],
    "meshes" : [
        {
            "name" : "Cylinder.010",
            "primitives" : [
                {
                    "attributes" : {
                        "POSITION" : 0
                    },
                    "indices" : 1,
                    "material" : 0
                }
            ]
        }
    ],
    "accessors" : [
        {
            "bufferView" : 0,
            "componentType" : 5126,
            "count" : 4738,
            "max" : [
                0.6115459203720093,
                2.931607723236084,
                0.6115459203720093
            ],
            "min" : [
                -0.611545979976654,
                0,
                -0.6115459203720093
            ],
            "type" : "VEC3"
        },
        {
            "bufferView" : 1,
            "componentType" : 5123,
            "count" : 28416,
            "type" : "SCALAR"
        }
    ],
    "bufferViews" : [
        {
            "buffer" : 0,
            "byteLength" : 56856,
            "byteOffset" : 0
        },
        {
            "buffer" : 0,
            "byteLength" : 56832,
            "byteOffset" : 56856
        }
    ],
    "buffers" : [
        {
            "byteLength" : 113688,
            "uri" : "data:application/octet-stream;base64,"
        }
    ]
}
