{
    "asset" : {
        "generator" : "Khronos glTF Blender I/O v1.5.17",
        "version" : "2.0"
    },
    "scene" : 0,
    "scenes" : [
        {
            "name" : "Scene",
            "nodes" : [
                0
            ]
        }
    ],
    "nodes" : [
        {
            "mesh" : 0,
            "name" : "Rook.001",
            "scale" : [
                0.6395083069801331,
                0.6395083069801331,
                0.6395083069801331
            ]
        }
    ],
    "materials" : [
        {
            "doubleSided" : true,
            "name" : "White.001",
            "pbrMetallicRoughness" : {
                "baseColorFactor" : [
                    1,
                    1,
                    1,
                    0
                ],
                "metallicFactor" : 0,
                "roughnessFactor" : 0.690034806728363
            }
        }
    ],
    "meshes" : [
        {
            "name" : "Cylinder.002",
            "primitives" : [
                {
                    "attributes" : {
                        "POSITION" : 0
                    },
                    "indices" : 1,
                    "material" : 0
                }
            ]
        }
    ],
    "accessors" : [
        {
            "bufferView" : 0,
            "componentType" : 5126,
            "count" : 4802,
            "max" : [
                0.4542354345321655,
                1.5420172214508057,
                0.4542354345321655
            ],
            "min" : [
                -0.4542354345321655,
                0,
                -0.4542354345321655
            ],
            "type" : "VEC3"
        },
        {
            "bufferView" : 1,
            "componentType" : 5123,
            "count" : 28800,
            "type" : "SCALAR"
        }
    ],
    "bufferViews" : [
        {
            "buffer" : 0,
            "byteLength" : 57624,
            "byteOffset" : 0
        },
        {
            "buffer" : 0,
            "byteLength" : 57600,
            "byteOffset" : 57624
        }
    ],
    "buffers" : [
        {
            "byteLength" : 115224,
            "uri" : "data:application/octet-stream;base64,"
        }
    ]
}
