{
  "accessors": [
    {
      "bufferView": 2,
      "componentType": 5126,
      "count": 153,
      "max": [
        0.7549314498901367,
        0.7907072305679321,
        -3.262251377105713
      ],
      "min": [
        -0.7549314498901367,
        -0.7907072305679321,
        -4.675960540771484
      ],
      "type": "VEC3"
    },
    {
      "bufferView": 2,
      "byteOffset": 1836,
      "componentType": 5126,
      "count": 153,
      "max": [
        0.9962761998176575,
        0.978999674320221,
        1.0
      ],
      "min": [
        -0.9962763786315918,
        -0.9789987802505493,
        -1.0
      ],
      "type": "VEC3"
    },
    {
      "bufferView": 3,
      "componentType": 5126,
      "count": 153,
      "max": [
        0.9937138557434082,
        0.994583010673523,
        0.7497836351394653,
        1.0
      ],
      "min": [
        -0.8570365905761719,
        -0.9563066959381104,
        -0.9748845100402832,
        1.0
      ],
      "type": "VEC4"
    },
    {
      "bufferView": 1,
      "componentType": 5126,
      "count": 153,
      "max": [
        1.0046207904815674,
        0.996425211429596
      ],
      "min": [
        0.0032435087487101555,
        0.0035748383961617947
      ],
      "type": "VEC2"
    },
    {
      "bufferView": 0,
      "componentType": 5125,
      "count": 540,
      "type": "SCALAR"
    },
    {
      "bufferView": 2,
      "byteOffset": 3672,
      "componentType": 5126,
      "count": 153,
      "max": [
        0.7549314498901367,
        0.7907072305679321,
        -3.262251377105713
      ],
      "min": [
        -0.7549314498901367,
        -0.7907072305679321,
        -4.675960540771484
      ],
      "type": "VEC3"
    },
    {
      "bufferView": 2,
      "byteOffset": 5508,
      "componentType": 5126,
      "count": 153,
      "max": [
        0.9962761998176575,
        0.978999674320221,
        1.0
      ],
      "min": [
        -0.9962763786315918,
        -0.9789987802505493,
        -1.0
      ],
      "type": "VEC3"
    },
    {
      "bufferView": 3,
      "byteOffset": 2448,
      "componentType": 5126,
      "count": 153,
      "max": [
        0.9937138557434082,
        0.994583010673523,
        0.7497836351394653,
        1.0
      ],
      "min": [
        -0.8570365905761719,
        -0.9563066959381104,
        -0.9748845100402832,
        1.0
      ],
      "type": "VEC4"
    },
    {
      "bufferView": 1,
      "byteOffset": 1224,
      "componentType": 5126,
      "count": 153,
      "max": [
        1.0046207904815674,
        0.996425211429596
      ],
      "min": [
        0.0032435087487101555,
        0.0035748383961617947
      ],
      "type": "VEC2"
    },
    {
      "bufferView": 0,
      "byteOffset": 2160,
      "componentType": 5125,
      "count": 540,
      "type": "SCALAR"
    },
    {
      "bufferView": 2,
      "byteOffset": 7344,
      "componentType": 5126,
      "count": 153,
      "max": [
        0.7549314498901367,
        0.7907072305679321,
        -3.262251377105713
      ],
      "min": [
        -0.7549314498901367,
        -0.7907072305679321,
        -4.675960540771484
      ],
      "type": "VEC3"
    },
    {
      "bufferView": 2,
      "byteOffset": 9180,
      "componentType": 5126,
      "count": 153,
      "max": [
        0.9962761998176575,
        0.978999674320221,
        1.0
      ],
      "min": [
        -0.9962763786315918,
        -0.9789987802505493,
        -1.0
      ],
      "type": "VEC3"
    },
    {
      "bufferView": 3,
      "byteOffset": 4896,
      "componentType": 5126,
      "count": 153,
      "max": [
        0.9937138557434082,
        0.994583010673523,
        0.7497836351394653,
        1.0
      ],
      "min": [
        -0.8570365905761719,
        -0.9563066959381104,
        -0.9748845100402832,
        1.0
      ],
      "type": "VEC4"
    },
    {
      "bufferView": 1,
      "byteOffset": 2448,
      "componentType": 5126,
      "count": 153,
      "max": [
        1.0046207904815674,
        0.996425211429596
      ],
      "min": [
        0.0032435087487101555,
        0.0035748383961617947
      ],
      "type": "VEC2"
    },
    {
      "bufferView": 0,
      "byteOffset": 4320,
      "componentType": 5125,
      "count": 540,
      "type": "SCALAR"
    },
    {
      "bufferView": 2,
      "byteOffset": 11016,
      "componentType": 5126,
      "count": 153,
      "max": [
        0.7549314498901367,
        0.7907072305679321,
        -3.262251377105713
      ],
      "min": [
        -0.7549314498901367,
        -0.7907072305679321,
        -4.675960540771484
      ],
      "type": "VEC3"
    },
    {
      "bufferView": 2,
      "byteOffset": 12852,
      "componentType": 5126,
      "count": 153,
      "max": [
        0.9962761998176575,
        0.978999674320221,
        1.0
      ],
      "min": [
        -0.9962763786315918,
        -0.9789987802505493,
        -1.0
      ],
      "type": "VEC3"
    },
    {
      "bufferView": 3,
      "byteOffset": 7344,
      "componentType": 5126,
      "count": 153,
      "max": [
        0.9937138557434082,
        0.994583010673523,
        0.7497836351394653,
        1.0
      ],
      "min": [
        -0.8570365905761719,
        -0.9563066959381104,
        -0.9748845100402832,
        1.0
      ],
      "type": "VEC4"
    },
    {
      "bufferView": 1,
      "byteOffset": 3672,
      "componentType": 5126,
      "count": 153,
      "max": [
        1.0046207904815674,
        0.996425211429596
      ],
      "min": [
        0.0032435087487101555,
        0.0035748383961617947
      ],
      "type": "VEC2"
    },
    {
      "bufferView": 0,
      "byteOffset": 6480,
      "componentType": 5125,
      "count": 540,
      "type": "SCALAR"
    },
    {
      "bufferView": 2,
      "byteOffset": 14688,
      "componentType": 5126,
      "count": 153,
      "max": [
        0.7549314498901367,
        0.7907072305679321,
        -3.262251377105713
      ],
      "min": [
        -0.7549314498901367,
        -0.7907072305679321,
        -4.675960540771484
      ],
      "type": "VEC3"
    },
    {
      "bufferView": 2,
      "byteOffset": 16524,
      "componentType": 5126,
      "count": 153,
      "max": [
        0.9962761998176575,
        0.978999674320221,
        1.0
      ],
      "min": [
        -0.9962763786315918,
        -0.9789987802505493,
        -1.0
      ],
      "type": "VEC3"
    },
    {
      "bufferView": 3,
      "byteOffset": 9792,
      "componentType": 5126,
      "count": 153,
      "max": [
        0.9937138557434082,
        0.994583010673523,
        0.7497836351394653,
        1.0
      ],
      "min": [
        -0.8570365905761719,
        -0.9563066959381104,
        -0.9748845100402832,
        1.0
      ],
      "type": "VEC4"
    },
    {
      "bufferView": 1,
      "byteOffset": 4896,
      "componentType": 5126,
      "count": 153,
      "max": [
        1.0046207904815674,
        0.996425211429596
      ],
      "min": [
        0.0032435087487101555,
        0.0035748383961617947
      ],
      "type": "VEC2"
    },
    {
      "bufferView": 0,
      "byteOffset": 8640,
      "componentType": 5125,
      "count": 540,
      "type": "SCALAR"
    },
    {
      "bufferView": 2,
      "byteOffset": 18360,
      "componentType": 5126,
      "count": 215,
      "max": [
        0.9258463382720947,
        0.9258463382720947,
        0.9258463382720947
      ],
      "min": [
        -0.9258463382720947,
        -0.9258463382720947,
        -0.9258463382720947
      ],
      "type": "VEC3"
    },
    {
      "bufferView": 2,
      "byteOffset": 20940,
      "componentType": 5126,
      "count": 215,
      "max": [
        0.9946171045303345,
        0.9946171641349792,
        0.9946171641349792
      ],
      "min": [
        -0.9946171045303345,
        -0.9946171641349792,
        -0.9946171641349792
      ],
      "type": "VEC3"
    },
    {
      "bufferView": 3,
      "byteOffset": 12240,
      "componentType": 5126,
      "count": 215,
      "max": [
        0.9685617685317993,
        0.9952608346939087,
        0.9093255996704102,
        1.0
      ],
      "min": [
        -0.991412878036499,
        -0.9704650044441223,
        -0.8790841102600098,
        1.0
      ],
      "type": "VEC4"
    },
    {
      "bufferView": 1,
      "byteOffset": 6120,
      "componentType": 5126,
      "count": 215,
      "max": [
        0.9878865480422974,
        0.9894789457321167
      ],
      "min": [
        0.010664278641343117,
        0.00732245622202754
      ],
      "type": "VEC2"
    },
    {
      "bufferView": 0,
      "byteOffset": 10800,
      "componentType": 5125,
      "count": 828,
      "type": "SCALAR"
    },
    {
      "bufferView": 2,
      "byteOffset": 23520,
      "componentType": 5126,
      "count": 215,
      "max": [
        0.9258463382720947,
        0.9258463382720947,
        0.9258463382720947
      ],
      "min": [
        -0.9258463382720947,
        -0.9258463382720947,
        -0.9258463382720947
      ],
      "type": "VEC3"
    },
    {
      "bufferView": 2,
      "byteOffset": 26100,
      "componentType": 5126,
      "count": 215,
      "max": [
        0.9946171045303345,
        0.9946171641349792,
        0.9946171641349792
      ],
      "min": [
        -0.9946171045303345,
        -0.9946171641349792,
        -0.9946171641349792
      ],
      "type": "VEC3"
    },
    {
      "bufferView": 3,
      "byteOffset": 15680,
      "componentType": 5126,
      "count": 215,
      "max": [
        0.9685617685317993,
        0.9952608346939087,
        0.9093255996704102,
        1.0
      ],
      "min": [
        -0.991412878036499,
        -0.9704650044441223,
        -0.8790841102600098,
        1.0
      ],
      "type": "VEC4"
    },
    {
      "bufferView": 1,
      "byteOffset": 7840,
      "componentType": 5126,
      "count": 215,
      "max": [
        0.9878865480422974,
        0.9894789457321167
      ],
      "min": [
        0.010664278641343117,
        0.00732245622202754
      ],
      "type": "VEC2"
    },
    {
      "bufferView": 0,
      "byteOffset": 14112,
      "componentType": 5125,
      "count": 828,
      "type": "SCALAR"
    },
    {
      "bufferView": 2,
      "byteOffset": 28680,
      "componentType": 5126,
      "count": 215,
      "max": [
        0.9258463382720947,
        0.9258463382720947,
        0.9258463382720947
      ],
      "min": [
        -0.9258463382720947,
        -0.9258463382720947,
        -0.9258463382720947
      ],
      "type": "VEC3"
    },
    {
      "bufferView": 2,
      "byteOffset": 31260,
      "componentType": 5126,
      "count": 215,
      "max": [
        0.9946171045303345,
        0.9946171641349792,
        0.9946171641349792
      ],
      "min": [
        -0.9946171045303345,
        -0.9946171641349792,
        -0.9946171641349792
      ],
      "type": "VEC3"
    },
    {
      "bufferView": 3,
      "byteOffset": 19120,
      "componentType": 5126,
      "count": 215,
      "max": [
        0.9685617685317993,
        0.9952608346939087,
        0.9093255996704102,
        1.0
      ],
      "min": [
        -0.991412878036499,
        -0.9704650044441223,
        -0.8790841102600098,
        1.0
      ],
      "type": "VEC4"
    },
    {
      "bufferView": 1,
      "byteOffset": 9560,
      "componentType": 5126,
      "count": 215,
      "max": [
        0.9878865480422974,
        0.9894789457321167
      ],
      "min": [
        0.010664278641343117,
        0.00732245622202754
      ],
      "type": "VEC2"
    },
    {
      "bufferView": 0,
      "byteOffset": 17424,
      "componentType": 5125,
      "count": 828,
      "type": "SCALAR"
    },
    {
      "bufferView": 2,
      "byteOffset": 33840,
      "componentType": 5126,
      "count": 215,
      "max": [
        0.9258463382720947,
        0.9258463382720947,
        0.9258463382720947
      ],
      "min": [
        -0.9258463382720947,
        -0.9258463382720947,
        -0.9258463382720947
      ],
      "type": "VEC3"
    },
    {
      "bufferView": 2,
      "byteOffset": 36420,
      "componentType": 5126,
      "count": 215,
      "max": [
        0.9946171045303345,
        0.9946171641349792,
        0.9946171641349792
      ],
      "min": [
        -0.9946171045303345,
        -0.9946171641349792,
        -0.9946171641349792
      ],
      "type": "VEC3"
    },
    {
      "bufferView": 3,
      "byteOffset": 22560,
      "componentType": 5126,
      "count": 215,
      "max": [
        0.9685617685317993,
        0.9952608346939087,
        0.9093255996704102,
        1.0
      ],
      "min": [
        -0.991412878036499,
        -0.9704650044441223,
        -0.8790841102600098,
        1.0
      ],
      "type": "VEC4"
    },
    {
      "bufferView": 1,
      "byteOffset": 11280,
      "componentType": 5126,
      "count": 215,
      "max": [
        0.9878865480422974,
        0.9894789457321167
      ],
      "min": [
        0.010664278641343117,
        0.00732245622202754
      ],
      "type": "VEC2"
    },
    {
      "bufferView": 0,
      "byteOffset": 20736,
      "componentType": 5125,
      "count": 828,
      "type": "SCALAR"
    },
    {
      "bufferView": 2,
      "byteOffset": 39000,
      "componentType": 5126,
      "count": 215,
      "max": [
        0.9258463382720947,
        0.9258463382720947,
        0.9258463382720947
      ],
      "min": [
        -0.9258463382720947,
        -0.9258463382720947,
        -0.9258463382720947
      ],
      "type": "VEC3"
    },
    {
      "bufferView": 2,
      "byteOffset": 41580,
      "componentType": 5126,
      "count": 215,
      "max": [
        0.9946171045303345,
        0.9946171641349792,
        0.9946171641349792
      ],
      "min": [
        -0.9946171045303345,
        -0.9946171641349792,
        -0.9946171641349792
      ],
      "type": "VEC3"
    },
    {
      "bufferView": 3,
      "byteOffset": 26000,
      "componentType": 5126,
      "count": 215,
      "max": [
        0.9685617685317993,
        0.9952608346939087,
        0.9093255996704102,
        1.0
      ],
      "min": [
        -0.991412878036499,
        -0.9704650044441223,
        -0.8790841102600098,
        1.0
      ],
      "type": "VEC4"
    },
    {
      "bufferView": 1,
      "byteOffset": 13000,
      "componentType": 5126,
      "count": 215,
      "max": [
        0.9878865480422974,
        0.9894789457321167
      ],
      "min": [
        0.010664278641343117,
        0.00732245622202754
      ],
      "type": "VEC2"
    },
    {
      "bufferView": 0,
      "byteOffset": 24048,
      "componentType": 5125,
      "count": 828,
      "type": "SCALAR"
    },
    {
      "bufferView": 2,
      "byteOffset": 44160,
      "componentType": 5126,
      "count": 188,
      "max": [
        0.8852061033248901,
        0.8455041646957397,
        0.9826807379722595
      ],
      "min": [
        -0.8852061033248901,
        -0.8455041646957397,
        -0.9826807975769043
      ],
      "type": "VEC3"
    },
    {
      "bufferView": 2,
      "byteOffset": 46416,
      "componentType": 5126,
      "count": 188,
      "max": [
        0.999717116355896,
        0.989132821559906,
        1.0
      ],
      "min": [
        -0.999717116355896,
        -0.9891328811645508,
        -1.0
      ],
      "type": "VEC3"
    },
    {
      "bufferView": 3,
      "byteOffset": 29440,
      "componentType": 5126,
      "count": 188,
      "max": [
        0.9970061182975769,
        1.0,
        0.43882331252098083,
        1.0
      ],
      "min": [
        -0.9965744018554688,
        -1.0,
        -0.31021881103515625,
        1.0
      ],
      "type": "VEC4"
    },
    {
      "bufferView": 1,
      "byteOffset": 14720,
      "componentType": 5126,
      "count": 188,
      "max": [
        0.9992128014564514,
        0.9981495141983032
      ],
      "min": [
        0.0007872283458709717,
        0.0036025643348693848
      ],
      "type": "VEC2"
    },
    {
      "bufferView": 0,
      "byteOffset": 27360,
      "componentType": 5125,
      "count": 780,
      "type": "SCALAR"
    },
    {
      "bufferView": 2,
      "byteOffset": 48672,
      "componentType": 5126,
      "count": 188,
      "max": [
        0.8852061033248901,
        0.8455041646957397,
        0.9826807379722595
      ],
      "min": [
        -0.8852061033248901,
        -0.8455041646957397,
        -0.9826807975769043
      ],
      "type": "VEC3"
    },
    {
      "bufferView": 2,
      "byteOffset": 50928,
      "componentType": 5126,
      "count": 188,
      "max": [
        0.999717116355896,
        0.989132821559906,
        1.0
      ],
      "min": [
        -0.999717116355896,
        -0.9891328811645508,
        -1.0
      ],
      "type": "VEC3"
    },
    {
      "bufferView": 3,
      "byteOffset": 32448,
      "componentType": 5126,
      "count": 188,
      "max": [
        0.9970061182975769,
        1.0,
        0.43882331252098083,
        1.0
      ],
      "min": [
        -0.9965744018554688,
        -1.0,
        -0.31021881103515625,
        1.0
      ],
      "type": "VEC4"
    },
    {
      "bufferView": 1,
      "byteOffset": 16224,
      "componentType": 5126,
      "count": 188,
      "max": [
        0.9992128014564514,
        0.9981495141983032
      ],
      "min": [
        0.0007872283458709717,
        0.0036025643348693848
      ],
      "type": "VEC2"
    },
    {
      "bufferView": 0,
      "byteOffset": 30480,
      "componentType": 5125,
      "count": 780,
      "type": "SCALAR"
    },
    {
      "bufferView": 2,
      "byteOffset": 53184,
      "componentType": 5126,
      "count": 188,
      "max": [
        0.8852061033248901,
        0.8455041646957397,
        0.9826807379722595
      ],
      "min": [
        -0.8852061033248901,
        -0.8455041646957397,
        -0.9826807975769043
      ],
      "type": "VEC3"
    },
    {
      "bufferView": 2,
      "byteOffset": 55440,
      "componentType": 5126,
      "count": 188,
      "max": [
        0.999717116355896,
        0.989132821559906,
        1.0
      ],
      "min": [
        -0.999717116355896,
        -0.9891328811645508,
        -1.0
      ],
      "type": "VEC3"
    },
    {
      "bufferView": 3,
      "byteOffset": 35456,
      "componentType": 5126,
      "count": 188,
      "max": [
        0.9970061182975769,
        1.0,
        0.43882331252098083,
        1.0
      ],
      "min": [
        -0.9965744018554688,
        -1.0,
        -0.31021881103515625,
        1.0
      ],
      "type": "VEC4"
    },
    {
      "bufferView": 1,
      "byteOffset": 17728,
      "componentType": 5126,
      "count": 188,
      "max": [
        0.9992128014564514,
        0.9981495141983032
      ],
      "min": [
        0.0007872283458709717,
        0.0036025643348693848
      ],
      "type": "VEC2"
    },
    {
      "bufferView": 0,
      "byteOffset": 33600,
      "componentType": 5125,
      "count": 780,
      "type": "SCALAR"
    },
    {
      "bufferView": 2,
      "byteOffset": 57696,
      "componentType": 5126,
      "count": 188,
      "max": [
        0.8852061033248901,
        0.8455041646957397,
        0.9826807379722595
      ],
      "min": [
        -0.8852061033248901,
        -0.8455041646957397,
        -0.9826807975769043
      ],
      "type": "VEC3"
    },
    {
      "bufferView": 2,
      "byteOffset": 59952,
      "componentType": 5126,
      "count": 188,
      "max": [
        0.999717116355896,
        0.989132821559906,
        1.0
      ],
      "min": [
        -0.999717116355896,
        -0.9891328811645508,
        -1.0
      ],
      "type": "VEC3"
    },
    {
      "bufferView": 3,
      "byteOffset": 38464,
      "componentType": 5126,
      "count": 188,
      "max": [
        0.9970061182975769,
        1.0,
        0.43882331252098083,
        1.0
      ],
      "min": [
        -0.9965744018554688,
        -1.0,
        -0.31021881103515625,
        1.0
      ],
      "type": "VEC4"
    },
    {
      "bufferView": 1,
      "byteOffset": 19232,
      "componentType": 5126,
      "count": 188,
      "max": [
        0.9992128014564514,
        0.9981495141983032
      ],
      "min": [
        0.0007872283458709717,
        0.0036025643348693848
      ],
      "type": "VEC2"
    },
    {
      "bufferView": 0,
      "byteOffset": 36720,
      "componentType": 5125,
      "count": 780,
      "type": "SCALAR"
    },
    {
      "bufferView": 2,
      "byteOffset": 62208,
      "componentType": 5126,
      "count": 188,
      "max": [
        0.8852061033248901,
        0.8455041646957397,
        0.9826807379722595
      ],
      "min": [
        -0.8852061033248901,
        -0.8455041646957397,
        -0.9826807975769043
      ],
      "type": "VEC3"
    },
    {
      "bufferView": 2,
      "byteOffset": 64464,
      "componentType": 5126,
      "count": 188,
      "max": [
        0.999717116355896,
        0.989132821559906,
        1.0
      ],
      "min": [
        -0.999717116355896,
        -0.9891328811645508,
        -1.0
      ],
      "type": "VEC3"
    },
    {
      "bufferView": 3,
      "byteOffset": 41472,
      "componentType": 5126,
      "count": 188,
      "max": [
        0.9970061182975769,
        1.0,
        0.43882331252098083,
        1.0
      ],
      "min": [
        -0.9965744018554688,
        -1.0,
        -0.31021881103515625,
        1.0
      ],
      "type": "VEC4"
    },
    {
      "bufferView": 1,
      "byteOffset": 20736,
      "componentType": 5126,
      "count": 188,
      "max": [
        0.9992128014564514,
        0.9981495141983032
      ],
      "min": [
        0.0007872283458709717,
        0.0036025643348693848
      ],
      "type": "VEC2"
    },
    {
      "bufferView": 0,
      "byteOffset": 39840,
      "componentType": 5125,
      "count": 780,
      "type": "SCALAR"
    },
    {
      "bufferView": 2,
      "byteOffset": 66720,
      "componentType": 5126,
      "count": 39,
      "max": [
        0.893913984298706,
        0.7741522789001465,
        0.9481390118598938
      ],
      "min": [
        -0.4582793116569519,
        -0.7741522192955017,
        -0.3333333432674408
      ],
      "type": "VEC3"
    },
    {
      "bufferView": 2,
      "byteOffset": 67188,
      "componentType": 5126,
      "count": 39,
      "max": [
        0.9428089261054993,
        0.9432928562164307,
        1.0
      ],
      "min": [
        -0.9524385333061218,
        -0.9432927966117859,
        -0.9618536829948425
      ],
      "type": "VEC3"
    },
    {
      "bufferView": 3,
      "byteOffset": 44480,
      "componentType": 5126,
      "count": 39,
      "max": [
        0.9848634600639343,
        0.999872088432312,
        0.9195300340652466,
        1.0
      ],
      "min": [
        -0.7494149208068848,
        -0.8248938918113708,
        -0.9314832091331482,
        1.0
      ],
      "type": "VEC4"
    },
    {
      "bufferView": 1,
      "byteOffset": 22240,
      "componentType": 5126,
      "count": 39,
      "max": [
        0.9894800782203674,
        0.8985043168067932
      ],
      "min": [
        0.015810325741767883,
        0.05132630839943886
      ],
      "type": "VEC2"
    },
    {
      "bufferView": 0,
      "byteOffset": 42960,
      "componentType": 5125,
      "count": 156,
      "type": "SCALAR"
    },
    {
      "bufferView": 2,
      "byteOffset": 67656,
      "componentType": 5126,
      "count": 39,
      "max": [
        0.893913984298706,
        0.7741522789001465,
        0.9481390118598938
      ],
      "min": [
        -0.4582793116569519,
        -0.7741522192955017,
        -0.3333333432674408
      ],
      "type": "VEC3"
    },
    {
      "bufferView": 2,
      "byteOffset": 68124,
      "componentType": 5126,
      "count": 39,
      "max": [
        0.9428089261054993,
        0.9432928562164307,
        1.0
      ],
      "min": [
        -0.9524385333061218,
        -0.9432927966117859,
        -0.9618536829948425
      ],
      "type": "VEC3"
    },
    {
      "bufferView": 3,
      "byteOffset": 45104,
      "componentType": 5126,
      "count": 39,
      "max": [
        0.9848634600639343,
        0.999872088432312,
        0.9195300340652466,
        1.0
      ],
      "min": [
        -0.7494149208068848,
        -0.8248938918113708,
        -0.9314832091331482,
        1.0
      ],
      "type": "VEC4"
    },
    {
      "bufferView": 1,
      "byteOffset": 22552,
      "componentType": 5126,
      "count": 39,
      "max": [
        0.9894800782203674,
        0.8985043168067932
      ],
      "min": [
        0.015810325741767883,
        0.05132630839943886
      ],
      "type": "VEC2"
    },
    {
      "bufferView": 0,
      "byteOffset": 43584,
      "componentType": 5125,
      "count": 156,
      "type": "SCALAR"
    },
    {
      "bufferView": 2,
      "byteOffset": 68592,
      "componentType": 5126,
      "count": 39,
      "max": [
        0.893913984298706,
        0.7741522789001465,
        0.9481390118598938
      ],
      "min": [
        -0.4582793116569519,
        -0.7741522192955017,
        -0.3333333432674408
      ],
      "type": "VEC3"
    },
    {
      "bufferView": 2,
      "byteOffset": 69060,
      "componentType": 5126,
      "count": 39,
      "max": [
        0.9428089261054993,
        0.9432928562164307,
        1.0
      ],
      "min": [
        -0.9524385333061218,
        -0.9432927966117859,
        -0.9618536829948425
      ],
      "type": "VEC3"
    },
    {
      "bufferView": 3,
      "byteOffset": 45728,
      "componentType": 5126,
      "count": 39,
      "max": [
        0.9848634600639343,
        0.999872088432312,
        0.9195300340652466,
        1.0
      ],
      "min": [
        -0.7494149208068848,
        -0.8248938918113708,
        -0.9314832091331482,
        1.0
      ],
      "type": "VEC4"
    },
    {
      "bufferView": 1,
      "byteOffset": 22864,
      "componentType": 5126,
      "count": 39,
      "max": [
        0.9894800782203674,
        0.8985043168067932
      ],
      "min": [
        0.015810325741767883,
        0.05132630839943886
      ],
      "type": "VEC2"
    },
    {
      "bufferView": 0,
      "byteOffset": 44208,
      "componentType": 5125,
      "count": 156,
      "type": "SCALAR"
    },
    {
      "bufferView": 2,
      "byteOffset": 69528,
      "componentType": 5126,
      "count": 39,
      "max": [
        0.893913984298706,
        0.7741522789001465,
        0.9481390118598938
      ],
      "min": [
        -0.4582793116569519,
        -0.7741522192955017,
        -0.3333333432674408
      ],
      "type": "VEC3"
    },
    {
      "bufferView": 2,
      "byteOffset": 69996,
      "componentType": 5126,
      "count": 39,
      "max": [
        0.9428089261054993,
        0.9432928562164307,
        1.0
      ],
      "min": [
        -0.9524385333061218,
        -0.9432927966117859,
        -0.9618536829948425
      ],
      "type": "VEC3"
    },
    {
      "bufferView": 3,
      "byteOffset": 46352,
      "componentType": 5126,
      "count": 39,
      "max": [
        0.9848634600639343,
        0.999872088432312,
        0.9195300340652466,
        1.0
      ],
      "min": [
        -0.7494149208068848,
        -0.8248938918113708,
        -0.9314832091331482,
        1.0
      ],
      "type": "VEC4"
    },
    {
      "bufferView": 1,
      "byteOffset": 23176,
      "componentType": 5126,
      "count": 39,
      "max": [
        0.9894800782203674,
        0.8985043168067932
      ],
      "min": [
        0.015810325741767883,
        0.05132630839943886
      ],
      "type": "VEC2"
    },
    {
      "bufferView": 0,
      "byteOffset": 44832,
      "componentType": 5125,
      "count": 156,
      "type": "SCALAR"
    },
    {
      "bufferView": 2,
      "byteOffset": 70464,
      "componentType": 5126,
      "count": 39,
      "max": [
        0.893913984298706,
        0.7741522789001465,
        0.9481390118598938
      ],
      "min": [
        -0.4582793116569519,
        -0.7741522192955017,
        -0.3333333432674408
      ],
      "type": "VEC3"
    },
    {
      "bufferView": 2,
      "byteOffset": 70932,
      "componentType": 5126,
      "count": 39,
      "max": [
        0.9428089261054993,
        0.9432928562164307,
        1.0
      ],
      "min": [
        -0.9524385333061218,
        -0.9432927966117859,
        -0.9618536829948425
      ],
      "type": "VEC3"
    },
    {
      "bufferView": 3,
      "byteOffset": 46976,
      "componentType": 5126,
      "count": 39,
      "max": [
        0.9848634600639343,
        0.999872088432312,
        0.9195300340652466,
        1.0
      ],
      "min": [
        -0.7494149208068848,
        -0.8248938918113708,
        -0.9314832091331482,
        1.0
      ],
      "type": "VEC4"
    },
    {
      "bufferView": 1,
      "byteOffset": 23488,
      "componentType": 5126,
      "count": 39,
      "max": [
        0.9894800782203674,
        0.8985043168067932
      ],
      "min": [
        0.015810325741767883,
        0.05132630839943886
      ],
      "type": "VEC2"
    },
    {
      "bufferView": 0,
      "byteOffset": 45456,
      "componentType": 5125,
      "count": 156,
      "type": "SCALAR"
    },
    {
      "bufferView": 2,
      "byteOffset": 71400,
      "componentType": 5126,
      "count": 78,
      "max": [
        1.0,
        1.0,
        1.0
      ],
      "min": [
        -1.0,
        -1.0,
        -1.0
      ],
      "type": "VEC3"
    },
    {
      "bufferView": 2,
      "byteOffset": 72336,
      "componentType": 5126,
      "count": 78,
      "max": [
        0.9672931432723999,
        0.9672931432723999,
        0.9672931432723999
      ],
      "min": [
        -0.9672931432723999,
        -0.9672931432723999,
        -0.9672931432723999
      ],
      "type": "VEC3"
    },
    {
      "bufferView": 3,
      "byteOffset": 47600,
      "componentType": 5126,
      "count": 78,
      "max": [
        0.9849987030029297,
        0.6966084241867065,
        0.9849987030029297,
        1.0
      ],
      "min": [
        -0.9849987030029297,
        -0.6966097950935364,
        -0.6966090202331543,
        1.0
      ],
      "type": "VEC4"
    },
    {
      "bufferView": 1,
      "byteOffset": 23800,
      "componentType": 5126,
      "count": 78,
      "max": [
        0.875,
        1.0
      ],
      "min": [
        0.125,
        0.0
      ],
      "type": "VEC2"
    },
    {
      "bufferView": 0,
      "byteOffset": 46080,
      "componentType": 5125,
      "count": 324,
      "type": "SCALAR"
    },
    {
      "bufferView": 2,
      "byteOffset": 73272,
      "componentType": 5126,
      "count": 78,
      "max": [
        1.0,
        1.0,
        1.0
      ],
      "min": [
        -1.0,
        -1.0,
        -1.0
      ],
      "type": "VEC3"
    },
    {
      "bufferView": 2,
      "byteOffset": 74208,
      "componentType": 5126,
      "count": 78,
      "max": [
        0.9672931432723999,
        0.9672931432723999,
        0.9672931432723999
      ],
      "min": [
        -0.9672931432723999,
        -0.9672931432723999,
        -0.9672931432723999
      ],
      "type": "VEC3"
    },
    {
      "bufferView": 3,
      "byteOffset": 48848,
      "componentType": 5126,
      "count": 78,
      "max": [
        0.9849987030029297,
        0.6966084241867065,
        0.9849987030029297,
        1.0
      ],
      "min": [
        -0.9849987030029297,
        -0.6966097950935364,
        -0.6966090202331543,
        1.0
      ],
      "type": "VEC4"
    },
    {
      "bufferView": 1,
      "byteOffset": 24424,
      "componentType": 5126,
      "count": 78,
      "max": [
        0.875,
        1.0
      ],
      "min": [
        0.125,
        0.0
      ],
      "type": "VEC2"
    },
    {
      "bufferView": 0,
      "byteOffset": 47376,
      "componentType": 5125,
      "count": 324,
      "type": "SCALAR"
    },
    {
      "bufferView": 2,
      "byteOffset": 75144,
      "componentType": 5126,
      "count": 78,
      "max": [
        1.0,
        1.0,
        1.0
      ],
      "min": [
        -1.0,
        -1.0,
        -1.0
      ],
      "type": "VEC3"
    },
    {
      "bufferView": 2,
      "byteOffset": 76080,
      "componentType": 5126,
      "count": 78,
      "max": [
        0.9672931432723999,
        0.9672931432723999,
        0.9672931432723999
      ],
      "min": [
        -0.9672931432723999,
        -0.9672931432723999,
        -0.9672931432723999
      ],
      "type": "VEC3"
    },
    {
      "bufferView": 3,
      "byteOffset": 50096,
      "componentType": 5126,
      "count": 78,
      "max": [
        0.9849987030029297,
        0.6966084241867065,
        0.9849987030029297,
        1.0
      ],
      "min": [
        -0.9849987030029297,
        -0.6966097950935364,
        -0.6966090202331543,
        1.0
      ],
      "type": "VEC4"
    },
    {
      "bufferView": 1,
      "byteOffset": 25048,
      "componentType": 5126,
      "count": 78,
      "max": [
        0.875,
        1.0
      ],
      "min": [
        0.125,
        0.0
      ],
      "type": "VEC2"
    },
    {
      "bufferView": 0,
      "byteOffset": 48672,
      "componentType": 5125,
      "count": 324,
      "type": "SCALAR"
    },
    {
      "bufferView": 2,
      "byteOffset": 77016,
      "componentType": 5126,
      "count": 78,
      "max": [
        1.0,
        1.0,
        1.0
      ],
      "min": [
        -1.0,
        -1.0,
        -1.0
      ],
      "type": "VEC3"
    },
    {
      "bufferView": 2,
      "byteOffset": 77952,
      "componentType": 5126,
      "count": 78,
      "max": [
        0.9672931432723999,
        0.9672931432723999,
        0.9672931432723999
      ],
      "min": [
        -0.9672931432723999,
        -0.9672931432723999,
        -0.9672931432723999
      ],
      "type": "VEC3"
    },
    {
      "bufferView": 3,
      "byteOffset": 51344,
      "componentType": 5126,
      "count": 78,
      "max": [
        0.9849987030029297,
        0.6966084241867065,
        0.9849987030029297,
        1.0
      ],
      "min": [
        -0.9849987030029297,
        -0.6966097950935364,
        -0.6966090202331543,
        1.0
      ],
      "type": "VEC4"
    },
    {
      "bufferView": 1,
      "byteOffset": 25672,
      "componentType": 5126,
      "count": 78,
      "max": [
        0.875,
        1.0
      ],
      "min": [
        0.125,
        0.0
      ],
      "type": "VEC2"
    },
    {
      "bufferView": 0,
      "byteOffset": 49968,
      "componentType": 5125,
      "count": 324,
      "type": "SCALAR"
    },
    {
      "bufferView": 2,
      "byteOffset": 78888,
      "componentType": 5126,
      "count": 78,
      "max": [
        1.0,
        1.0,
        1.0
      ],
      "min": [
        -1.0,
        -1.0,
        -1.0
      ],
      "type": "VEC3"
    },
    {
      "bufferView": 2,
      "byteOffset": 79824,
      "componentType": 5126,
      "count": 78,
      "max": [
        0.9672931432723999,
        0.9672931432723999,
        0.9672931432723999
      ],
      "min": [
        -0.9672931432723999,
        -0.9672931432723999,
        -0.9672931432723999
      ],
      "type": "VEC3"
    },
    {
      "bufferView": 3,
      "byteOffset": 52592,
      "componentType": 5126,
      "count": 78,
      "max": [
        0.9849987030029297,
        0.6966084241867065,
        0.9849987030029297,
        1.0
      ],
      "min": [
        -0.9849987030029297,
        -0.6966097950935364,
        -0.6966090202331543,
        1.0
      ],
      "type": "VEC4"
    },
    {
      "bufferView": 1,
      "byteOffset": 26296,
      "componentType": 5126,
      "count": 78,
      "max": [
        0.875,
        1.0
      ],
      "min": [
        0.125,
        0.0
      ],
      "type": "VEC2"
    },
    {
      "bufferView": 0,
      "byteOffset": 51264,
      "componentType": 5125,
      "count": 324,
      "type": "SCALAR"
    },
    {
      "bufferView": 2,
      "byteOffset": 80760,
      "componentType": 5126,
      "count": 83,
      "max": [
        0.9300008416175842,
        0.9300008416175842,
        0.9300008416175842
      ],
      "min": [
        -0.9300008416175842,
        -0.9300008416175842,
        -0.9300008416175842
      ],
      "type": "VEC3"
    },
    {
      "bufferView": 2,
      "byteOffset": 81756,
      "componentType": 5126,
      "count": 83,
      "max": [
        1.0,
        1.0,
        1.0
      ],
      "min": [
        -1.0,
        -1.0,
        -1.0
      ],
      "type": "VEC3"
    },
    {
      "bufferView": 3,
      "byteOffset": 53840,
      "componentType": 5126,
      "count": 83,
      "max": [
        0.5637989640235901,
        0.4591473340988159,
        0.9997124075889587,
        1.0
      ],
      "min": [
        -0.9988234639167786,
        -0.9992675185203552,
        -0.996606707572937,
        1.0
      ],
      "type": "VEC4"
    },
    {
      "bufferView": 1,
      "byteOffset": 26920,
      "componentType": 5126,
      "count": 83,
      "max": [
        0.9878117442131042,
        0.9876728653907776
      ],
      "min": [
        0.009576342068612576,
        0.013230228796601295
      ],
      "type": "VEC2"
    },
    {
      "bufferView": 0,
      "byteOffset": 52560,
      "componentType": 5125,
      "count": 312,
      "type": "SCALAR"
    },
    {
      "bufferView": 2,
      "byteOffset": 82752,
      "componentType": 5126,
      "count": 83,
      "max": [
        0.9300008416175842,
        0.9300008416175842,
        0.9300008416175842
      ],
      "min": [
        -0.9300008416175842,
        -0.9300008416175842,
        -0.9300008416175842
      ],
      "type": "VEC3"
    },
    {
      "bufferView": 2,
      "byteOffset": 83748,
      "componentType": 5126,
      "count": 83,
      "max": [
        1.0,
        1.0,
        1.0
      ],
      "min": [
        -1.0,
        -1.0,
        -1.0
      ],
      "type": "VEC3"
    },
    {
      "bufferView": 3,
      "byteOffset": 55168,
      "componentType": 5126,
      "count": 83,
      "max": [
        0.5637989640235901,
        0.4591473340988159,
        0.9997124075889587,
        1.0
      ],
      "min": [
        -0.9988234639167786,
        -0.9992675185203552,
        -0.996606707572937,
        1.0
      ],
      "type": "VEC4"
    },
    {
      "bufferView": 1,
      "byteOffset": 27584,
      "componentType": 5126,
      "count": 83,
      "max": [
        0.9878117442131042,
        0.9876728653907776
      ],
      "min": [
        0.009576342068612576,
        0.013230228796601295
      ],
      "type": "VEC2"
    },
    {
      "bufferView": 0,
      "byteOffset": 53808,
      "componentType": 5125,
      "count": 312,
      "type": "SCALAR"
    },
    {
      "bufferView": 2,
      "byteOffset": 84744,
      "componentType": 5126,
      "count": 83,
      "max": [
        0.9300008416175842,
        0.9300008416175842,
        0.9300008416175842
      ],
      "min": [
        -0.9300008416175842,
        -0.9300008416175842,
        -0.9300008416175842
      ],
      "type": "VEC3"
    },
    {
      "bufferView": 2,
      "byteOffset": 85740,
      "componentType": 5126,
      "count": 83,
      "max": [
        1.0,
        1.0,
        1.0
      ],
      "min": [
        -1.0,
        -1.0,
        -1.0
      ],
      "type": "VEC3"
    },
    {
      "bufferView": 3,
      "byteOffset": 56496,
      "componentType": 5126,
      "count": 83,
      "max": [
        0.5637989640235901,
        0.4591473340988159,
        0.9997124075889587,
        1.0
      ],
      "min": [
        -0.9988234639167786,
        -0.9992675185203552,
        -0.996606707572937,
        1.0
      ],
      "type": "VEC4"
    },
    {
      "bufferView": 1,
      "byteOffset": 28248,
      "componentType": 5126,
      "count": 83,
      "max": [
        0.9878117442131042,
        0.9876728653907776
      ],
      "min": [
        0.009576342068612576,
        0.013230228796601295
      ],
      "type": "VEC2"
    },
    {
      "bufferView": 0,
      "byteOffset": 55056,
      "componentType": 5125,
      "count": 312,
      "type": "SCALAR"
    },
    {
      "bufferView": 2,
      "byteOffset": 86736,
      "componentType": 5126,
      "count": 83,
      "max": [
        0.9300008416175842,
        0.9300008416175842,
        0.9300008416175842
      ],
      "min": [
        -0.9300008416175842,
        -0.9300008416175842,
        -0.9300008416175842
      ],
      "type": "VEC3"
    },
    {
      "bufferView": 2,
      "byteOffset": 87732,
      "componentType": 5126,
      "count": 83,
      "max": [
        1.0,
        1.0,
        1.0
      ],
      "min": [
        -1.0,
        -1.0,
        -1.0
      ],
      "type": "VEC3"
    },
    {
      "bufferView": 3,
      "byteOffset": 57824,
      "componentType": 5126,
      "count": 83,
      "max": [
        0.5637989640235901,
        0.4591473340988159,
        0.9997124075889587,
        1.0
      ],
      "min": [
        -0.9988234639167786,
        -0.9992675185203552,
        -0.996606707572937,
        1.0
      ],
      "type": "VEC4"
    },
    {
      "bufferView": 1,
      "byteOffset": 28912,
      "componentType": 5126,
      "count": 83,
      "max": [
        0.9878117442131042,
        0.9876728653907776
      ],
      "min": [
        0.009576342068612576,
        0.013230228796601295
      ],
      "type": "VEC2"
    },
    {
      "bufferView": 0,
      "byteOffset": 56304,
      "componentType": 5125,
      "count": 312,
      "type": "SCALAR"
    },
    {
      "bufferView": 2,
      "byteOffset": 88728,
      "componentType": 5126,
      "count": 83,
      "max": [
        0.9300008416175842,
        0.9300008416175842,
        0.9300008416175842
      ],
      "min": [
        -0.9300008416175842,
        -0.9300008416175842,
        -0.9300008416175842
      ],
      "type": "VEC3"
    },
    {
      "bufferView": 2,
      "byteOffset": 89724,
      "componentType": 5126,
      "count": 83,
      "max": [
        1.0,
        1.0,
        1.0
      ],
      "min": [
        -1.0,
        -1.0,
        -1.0
      ],
      "type": "VEC3"
    },
    {
      "bufferView": 3,
      "byteOffset": 59152,
      "componentType": 5126,
      "count": 83,
      "max": [
        0.5637989640235901,
        0.4591473340988159,
        0.9997124075889587,
        1.0
      ],
      "min": [
        -0.9988234639167786,
        -0.9992675185203552,
        -0.996606707572937,
        1.0
      ],
      "type": "VEC4"
    },
    {
      "bufferView": 1,
      "byteOffset": 29576,
      "componentType": 5126,
      "count": 83,
      "max": [
        0.9878117442131042,
        0.9876728653907776
      ],
      "min": [
        0.009576342068612576,
        0.013230228796601295
      ],
      "type": "VEC2"
    },
    {
      "bufferView": 0,
      "byteOffset": 57552,
      "componentType": 5125,
      "count": 312,
      "type": "SCALAR"
    }
  ],
  "asset": {
    "extras": {
      "author": "Logan S. (https://sketchfab.com/ronsalrich)",
      "license": "CC-BY-4.0 (http://creativecommons.org/licenses/by/4.0/)",
      "source": "https://sketchfab.com/3d-models/dnd-dice-set-51a01c6f714944ea95d9a2d24eb24928",
      "title": "DnD Dice Set"
    },
    "generator": "Sketchfab-16.64.0",
    "version": "2.0"
  },
  "bufferViews": [
    {
      "buffer": 0,
      "byteLength": 58800,
      "name": "floatBufferViews",
      "target": 34963
    },
    {
      "buffer": 0,
      "byteLength": 30240,
      "byteOffset": 58800,
      "byteStride": 8,
      "name": "floatBufferViews",
      "target": 34962
    },
    {
      "buffer": 0,
      "byteLength": 90720,
      "byteOffset": 89040,
      "byteStride": 12,
      "name": "floatBufferViews",
      "target": 34962
    },
    {
      "buffer": 0,
      "byteLength": 60480,
      "byteOffset": 179760,
      "byteStride": 16,
      "name": "floatBufferViews",
      "target": 34962
    }
  ],
  "buffers": [
    {
      "byteLength": 240240,
      "uri": "scene.bin"
    }
  ],
  "extensionsUsed": [
    "KHR_materials_specular"
  ],
  "images": [
    {
      "uri": "textures/10Red_baseColor.png"
    },
    {
      "uri": "textures/10Red_metallicRoughness.png"
    },
    {
      "uri": "textures/10Red_normal.png"
    },
    {
      "uri": "textures/10Silver_baseColor.png"
    },
    {
      "uri": "textures/10Silver_metallicRoughness.png"
    },
    {
      "uri": "textures/10TieDye_baseColor.png"
    },
    {
      "uri": "textures/10TieDye_metallicRoughness.png"
    },
    {
      "uri": "textures/10White_baseColor.png"
    },
    {
      "uri": "textures/10White_normal.png"
    },
    {
      "uri": "textures/10Yellow_baseColor.png"
    },
    {
      "uri": "textures/12Red_baseColor.png"
    },
    {
      "uri": "textures/12Red_normal.png"
    },
    {
      "uri": "textures/12Silver_baseColor.png"
    },
    {
      "uri": "textures/12TieDye_baseColor.png"
    },
    {
      "uri": "textures/12TieDye_metallicRoughness.png"
    },
    {
      "uri": "textures/12White_baseColor.png"
    },
    {
      "uri": "textures/12White_normal.png"
    },
    {
      "uri": "textures/12Yellow_baseColor.png"
    },
    {
      "uri": "textures/20Red_baseColor.png"
    },
    {
      "uri": "textures/20Red_normal.png"
    },
    {
      "uri": "textures/20Silver_baseColor.png"
    },
    {
      "uri": "textures/20TieDye_baseColor.png"
    },
    {
      "uri": "textures/20TieDye_metallicRoughness.png"
    },
    {
      "uri": "textures/20White_baseColor.png"
    },
    {
      "uri": "textures/20White_normal.png"
    },
    {
      "uri": "textures/20Yellow_baseColor.png"
    },
    {
      "uri": "textures/4Red_baseColor.png"
    },
    {
      "uri": "textures/4Red_normal.png"
    },
    {
      "uri": "textures/4Silver_baseColor.png"
    },
    {
      "uri": "textures/4TieDye_baseColor.png"
    },
    {
      "uri": "textures/4TieDye_metallicRoughness.png"
    },
    {
      "uri": "textures/4Yellow_baseColor.png"
    },
    {
      "uri": "textures/4Yellow_normal.png"
    },
    {
      "uri": "textures/4White_baseColor.png"
    },
    {
      "uri": "textures/6Red_baseColor.png"
    },
    {
      "uri": "textures/6Red_normal.png"
    },
    {
      "uri": "textures/6Silver_baseColor.png"
    },
    {
      "uri": "textures/6TieDye_baseColor.png"
    },
    {
      "uri": "textures/6TieDye_metallicRoughness.png"
    },
    {
      "uri": "textures/6White_baseColor.png"
    },
    {
      "uri": "textures/6White_normal.png"
    },
    {
      "uri": "textures/6Yellow_baseColor.png"
    },
    {
      "uri": "textures/8Red_baseColor.png"
    },
    {
      "uri": "textures/8Red_normal.png"
    },
    {
      "uri": "textures/8Silver_baseColor.png"
    },
    {
      "uri": "textures/8TieDye_baseColor.png"
    },
    {
      "uri": "textures/8TieDye_metallicRoughness.png"
    },
    {
      "uri": "textures/8Yellow_baseColor.png"
    },
    {
      "uri": "textures/8Yellow_normal.png"
    },
    {
      "uri": "textures/8White_baseColor.png"
    }
  ],
  "materials": [
    {
      "doubleSided": true,
      "name": "10Red",
      "normalTexture": {
        "index": 2
      },
      "pbrMetallicRoughness": {
        "baseColorTexture": {
          "index": 0
        },
        "metallicRoughnessTexture": {
          "index": 1
        }
      }
    },
    {
      "doubleSided": true,
      "name": "10Silver",
      "normalTexture": {
        "index": 2
      },
      "pbrMetallicRoughness": {
        "baseColorTexture": {
          "index": 3
        },
        "metallicRoughnessTexture": {
          "index": 4
        }
      }
    },
    {
      "doubleSided": true,
      "name": "10TieDye",
      "normalTexture": {
        "index": 2
      },
      "pbrMetallicRoughness": {
        "baseColorTexture": {
          "index": 5
        },
        "metallicRoughnessTexture": {
          "index": 6
        }
      }
    },
    {
      "doubleSided": true,
      "name": "10White",
      "normalTexture": {
        "index": 8
      },
      "pbrMetallicRoughness": {
        "baseColorTexture": {
          "index": 7
        },
        "metallicRoughnessTexture": {
          "index": 1
        }
      }
    },
    {
      "doubleSided": true,
      "name": "10Yellow",
      "normalTexture": {
        "index": 8
      },
      "pbrMetallicRoughness": {
        "baseColorTexture": {
          "index": 9
        },
        "metallicRoughnessTexture": {
          "index": 1
        }
      }
    },
    {
      "doubleSided": true,
      "name": "12Red",
      "normalTexture": {
        "index": 11
      },
      "pbrMetallicRoughness": {
        "baseColorTexture": {
          "index": 10
        },
        "metallicRoughnessTexture": {
          "index": 1
        }
      }
    },
    {
      "doubleSided": true,
      "name": "12Silver",
      "normalTexture": {
        "index": 11
      },
      "pbrMetallicRoughness": {
        "baseColorTexture": {
          "index": 12
        },
        "metallicRoughnessTexture": {
          "index": 4
        }
      }
    },
    {
      "doubleSided": true,
      "name": "12TieDye",
      "normalTexture": {
        "index": 11
      },
      "pbrMetallicRoughness": {
        "baseColorTexture": {
          "index": 13
        },
        "metallicRoughnessTexture": {
          "index": 14
        }
      }
    },
    {
      "doubleSided": true,
      "name": "12White",
      "normalTexture": {
        "index": 16
      },
      "pbrMetallicRoughness": {
        "baseColorTexture": {
          "index": 15
        },
        "metallicRoughnessTexture": {
          "index": 1
        }
      }
    },
    {
      "doubleSided": true,
      "name": "12Yellow",
      "normalTexture": {
        "index": 16
      },
      "pbrMetallicRoughness": {
        "baseColorTexture": {
          "index": 17
        },
        "metallicRoughnessTexture": {
          "index": 1
        }
      }
    },
    {
      "doubleSided": true,
      "name": "20Red",
      "normalTexture": {
        "index": 19
      },
      "pbrMetallicRoughness": {
        "baseColorTexture": {
          "index": 18
        },
        "metallicRoughnessTexture": {
          "index": 1
        }
      }
    },
    {
      "doubleSided": true,
      "name": "20Silver",
      "normalTexture": {
        "index": 19
      },
      "pbrMetallicRoughness": {
        "baseColorTexture": {
          "index": 20
        },
        "metallicRoughnessTexture": {
          "index": 4
        }
      }
    },
    {
      "doubleSided": true,
      "name": "20TieDye",
      "normalTexture": {
        "index": 19
      },
      "pbrMetallicRoughness": {
        "baseColorTexture": {
          "index": 21
        },
        "metallicRoughnessTexture": {
          "index": 22
        }
      }
    },
    {
      "doubleSided": true,
      "name": "20White",
      "normalTexture": {
        "index": 24
      },
      "pbrMetallicRoughness": {
        "baseColorTexture": {
          "index": 23
        },
        "metallicRoughnessTexture": {
          "index": 1
        }
      }
    },
    {
      "doubleSided": true,
      "name": "20Yellow",
      "normalTexture": {
        "index": 24
      },
      "pbrMetallicRoughness": {
        "baseColorTexture": {
          "index": 25
        },
        "metallicRoughnessTexture": {
          "index": 1
        }
      }
    },
    {
      "doubleSided": true,
      "name": "4Red",
      "normalTexture": {
        "index": 27
      },
      "pbrMetallicRoughness": {
        "baseColorTexture": {
          "index": 26
        },
        "metallicRoughnessTexture": {
          "index": 1
        }
      }
    },
    {
      "doubleSided": true,
      "name": "4Silver",
      "normalTexture": {
        "index": 27
      },
      "pbrMetallicRoughness": {
        "baseColorTexture": {
          "index": 28
        },
        "metallicRoughnessTexture": {
          "index": 4
        }
      }
    },
    {
      "doubleSided": true,
      "extensions": {
        "KHR_materials_specular": {
          "specularColorFactor": [
            1.0,
            1.0,
            1.0
          ],
          "specularFactor": 0.51
        }
      },
      "name": "4TieDye",
      "normalTexture": {
        "index": 27
      },
      "pbrMetallicRoughness": {
        "baseColorTexture": {
          "index": 29
        },
        "metallicRoughnessTexture": {
          "index": 30
        }
      }
    },
    {
      "doubleSided": true,
      "name": "4Yellow",
      "normalTexture": {
        "index": 32
      },
      "pbrMetallicRoughness": {
        "baseColorTexture": {
          "index": 31
        },
        "metallicRoughnessTexture": {
          "index": 1
        }
      }
    },
    {
      "doubleSided": true,
      "name": "4White",
      "normalTexture": {
        "index": 32
      },
      "pbrMetallicRoughness": {
        "baseColorTexture": {
          "index": 33
        },
        "metallicRoughnessTexture": {
          "index": 1
        }
      }
    },
    {
      "doubleSided": true,
      "name": "6Red",
      "normalTexture": {
        "index": 35
      },
      "pbrMetallicRoughness": {
        "baseColorTexture": {
          "index": 34
        },
        "metallicRoughnessTexture": {
          "index": 1
        }
      }
    },
    {
      "doubleSided": true,
      "name": "6Silver",
      "normalTexture": {
        "index": 35
      },
      "pbrMetallicRoughness": {
        "baseColorTexture": {
          "index": 36
        },
        "metallicRoughnessTexture": {
          "index": 4
        }
      }
    },
    {
      "doubleSided": true,
      "name": "6TieDye",
      "normalTexture": {
        "index": 35
      },
      "pbrMetallicRoughness": {
        "baseColorTexture": {
          "index": 37
        },
        "metallicRoughnessTexture": {
          "index": 38
        }
      }
    },
    {
      "doubleSided": true,
      "name": "6White",
      "normalTexture": {
        "index": 40
      },
      "pbrMetallicRoughness": {
        "baseColorTexture": {
          "index": 39
        },
        "metallicRoughnessTexture": {
          "index": 1
        }
      }
    },
    {
      "doubleSided": true,
      "name": "6Yellow",
      "normalTexture": {
        "index": 40
      },
      "pbrMetallicRoughness": {
        "baseColorTexture": {
          "index": 41
        },
        "metallicRoughnessTexture": {
          "index": 1
        }
      }
    },
    {
      "doubleSided": true,
      "name": "8Red",
      "normalTexture": {
        "index": 43
      },
      "pbrMetallicRoughness": {
        "baseColorTexture": {
          "index": 42
        },
        "metallicRoughnessTexture": {
          "index": 1
        }
      }
    },
    {
      "doubleSided": true,
      "name": "8Silver",
      "normalTexture": {
        "index": 43
      },
      "pbrMetallicRoughness": {
        "baseColorTexture": {
          "index": 44
        },
        "metallicRoughnessTexture": {
          "index": 4
        }
      }
    },
    {
      "doubleSided": true,
      "name": "8TieDye",
      "normalTexture": {
        "index": 43
      },
      "pbrMetallicRoughness": {
        "baseColorTexture": {
          "index": 45
        },
        "metallicRoughnessTexture": {
          "index": 46
        }
      }
    },
    {
      "doubleSided": true,
      "name": "8Yellow",
      "normalTexture": {
        "index": 48
      },
      "pbrMetallicRoughness": {
        "baseColorTexture": {
          "index": 47
        },
        "metallicRoughnessTexture": {
          "index": 1
        }
      }
    },
    {
      "doubleSided": true,
      "name": "8White",
      "normalTexture": {
        "index": 48
      },
      "pbrMetallicRoughness": {
        "baseColorTexture": {
          "index": 49
        },
        "metallicRoughnessTexture": {
          "index": 1
        }
      }
    }
  ],
  "meshes": [
    {
      "name": "10Red_10Red_0",
      "primitives": [
        {
          "attributes": {
            "NORMAL": 1,
            "POSITION": 0,
            "TANGENT": 2,
            "TEXCOORD_0": 3
          },
          "indices": 4,
          "material": 0,
          "mode": 4
        }
      ]
    },
    {
      "name": "10Silver_10Silver_0",
      "primitives": [
        {
          "attributes": {
            "NORMAL": 6,
            "POSITION": 5,
            "TANGENT": 7,
            "TEXCOORD_0": 8
          },
          "indices": 9,
          "material": 1,
          "mode": 4
        }
      ]
    },
    {
      "name": "10TieDye_10TieDye_0",
      "primitives": [
        {
          "attributes": {
            "NORMAL": 11,
            "POSITION": 10,
            "TANGENT": 12,
            "TEXCOORD_0": 13
          },
          "indices": 14,
          "material": 2,
          "mode": 4
        }
      ]
    },
    {
      "name": "10White_10White_0",
      "primitives": [
        {
          "attributes": {
            "NORMAL": 16,
            "POSITION": 15,
            "TANGENT": 17,
            "TEXCOORD_0": 18
          },
          "indices": 19,
          "material": 3,
          "mode": 4
        }
      ]
    },
    {
      "name": "10Yellow_10Yellow_0",
      "primitives": [
        {
          "attributes": {
            "NORMAL": 21,
            "POSITION": 20,
            "TANGENT": 22,
            "TEXCOORD_0": 23
          },
          "indices": 24,
          "material": 4,
          "mode": 4
        }
      ]
    },
    {
      "name": "12Red_12Red_0",
      "primitives": [
        {
          "attributes": {
            "NORMAL": 26,
            "POSITION": 25,
            "TANGENT": 27,
            "TEXCOORD_0": 28
          },
          "indices": 29,
          "material": 5,
          "mode": 4
        }
      ]
    },
    {
      "name": "12Silver_12Silver_0",
      "primitives": [
        {
          "attributes": {
            "NORMAL": 31,
            "POSITION": 30,
            "TANGENT": 32,
            "TEXCOORD_0": 33
          },
          "indices": 34,
          "material": 6,
          "mode": 4
        }
      ]
    },
    {
      "name": "12TieDye_12TieDye_0",
      "primitives": [
        {
          "attributes": {
            "NORMAL": 36,
            "POSITION": 35,
            "TANGENT": 37,
            "TEXCOORD_0": 38
          },
          "indices": 39,
          "material": 7,
          "mode": 4
        }
      ]
    },
    {
      "name": "12White_12White_0",
      "primitives": [
        {
          "attributes": {
            "NORMAL": 41,
            "POSITION": 40,
            "TANGENT": 42,
            "TEXCOORD_0": 43
          },
          "indices": 44,
          "material": 8,
          "mode": 4
        }
      ]
    },
    {
      "name": "12Yellow_12Yellow_0",
      "primitives": [
        {
          "attributes": {
            "NORMAL": 46,
            "POSITION": 45,
            "TANGENT": 47,
            "TEXCOORD_0": 48
          },
          "indices": 49,
          "material": 9,
          "mode": 4
        }
      ]
    },
    {
      "name": "20Red_20Red_0",
      "primitives": [
        {
          "attributes": {
            "NORMAL": 51,
            "POSITION": 50,
            "TANGENT": 52,
            "TEXCOORD_0": 53
          },
          "indices": 54,
          "material": 10,
          "mode": 4
        }
      ]
    },
    {
      "name": "20Silver_20Silver_0",
      "primitives": [
        {
          "attributes": {
            "NORMAL": 56,
            "POSITION": 55,
            "TANGENT": 57,
            "TEXCOORD_0": 58
          },
          "indices": 59,
          "material": 11,
          "mode": 4
        }
      ]
    },
    {
      "name": "20TieDye_20TieDye_0",
      "primitives": [
        {
          "attributes": {
            "NORMAL": 61,
            "POSITION": 60,
            "TANGENT": 62,
            "TEXCOORD_0": 63
          },
          "indices": 64,
          "material": 12,
          "mode": 4
        }
      ]
    },
    {
      "name": "20White_20White_0",
      "primitives": [
        {
          "attributes": {
            "NORMAL": 66,
            "POSITION": 65,
            "TANGENT": 67,
            "TEXCOORD_0": 68
          },
          "indices": 69,
          "material": 13,
          "mode": 4
        }
      ]
    },
    {
      "name": "20Yellow_20Yellow_0",
      "primitives": [
        {
          "attributes": {
            "NORMAL": 71,
            "POSITION": 70,
            "TANGENT": 72,
            "TEXCOORD_0": 73
          },
          "indices": 74,
          "material": 14,
          "mode": 4
        }
      ]
    },
    {
      "name": "4Red_4Red_0",
      "primitives": [
        {
          "attributes": {
            "NORMAL": 76,
            "POSITION": 75,
            "TANGENT": 77,
            "TEXCOORD_0": 78
          },
          "indices": 79,
          "material": 15,
          "mode": 4
        }
      ]
    },
    {
      "name": "4Silver_4Silver_0",
      "primitives": [
        {
          "attributes": {
            "NORMAL": 81,
            "POSITION": 80,
            "TANGENT": 82,
            "TEXCOORD_0": 83
          },
          "indices": 84,
          "material": 16,
          "mode": 4
        }
      ]
    },
    {
      "name": "4TieDye_4TieDye_0",
      "primitives": [
        {
          "attributes": {
            "NORMAL": 86,
            "POSITION": 85,
            "TANGENT": 87,
            "TEXCOORD_0": 88
          },
          "indices": 89,
          "material": 17,
          "mode": 4
        }
      ]
    },
    {
      "name": "4Yellow_4Yellow_0",
      "primitives": [
        {
          "attributes": {
            "NORMAL": 91,
            "POSITION": 90,
            "TANGENT": 92,
            "TEXCOORD_0": 93
          },
          "indices": 94,
          "material": 18,
          "mode": 4
        }
      ]
    },
    {
      "name": "4white_4White_0",
      "primitives": [
        {
          "attributes": {
            "NORMAL": 96,
            "POSITION": 95,
            "TANGENT": 97,
            "TEXCOORD_0": 98
          },
          "indices": 99,
          "material": 19,
          "mode": 4
        }
      ]
    },
    {
      "name": "6Red_6Red_0",
      "primitives": [
        {
          "attributes": {
            "NORMAL": 101,
            "POSITION": 100,
            "TANGENT": 102,
            "TEXCOORD_0": 103
          },
          "indices": 104,
          "material": 20,
          "mode": 4
        }
      ]
    },
    {
      "name": "6Silver_6Silver_0",
      "primitives": [
        {
          "attributes": {
            "NORMAL": 106,
            "POSITION": 105,
            "TANGENT": 107,
            "TEXCOORD_0": 108
          },
          "indices": 109,
          "material": 21,
          "mode": 4
        }
      ]
    },
    {
      "name": "6TieDye_6TieDye_0",
      "primitives": [
        {
          "attributes": {
            "NORMAL": 111,
            "POSITION": 110,
            "TANGENT": 112,
            "TEXCOORD_0": 113
          },
          "indices": 114,
          "material": 22,
          "mode": 4
        }
      ]
    },
    {
      "name": "6White_6White_0",
      "primitives": [
        {
          "attributes": {
            "NORMAL": 116,
            "POSITION": 115,
            "TANGENT": 117,
            "TEXCOORD_0": 118
          },
          "indices": 119,
          "material": 23,
          "mode": 4
        }
      ]
    },
    {
      "name": "6Yellow_6Yellow_0",
      "primitives": [
        {
          "attributes": {
            "NORMAL": 121,
            "POSITION": 120,
            "TANGENT": 122,
            "TEXCOORD_0": 123
          },
          "indices": 124,
          "material": 24,
          "mode": 4
        }
      ]
    },
    {
      "name": "8Red_8Red_0",
      "primitives": [
        {
          "attributes": {
            "NORMAL": 126,
            "POSITION": 125,
            "TANGENT": 127,
            "TEXCOORD_0": 128
          },
          "indices": 129,
          "material": 25,
          "mode": 4
        }
      ]
    },
    {
      "name": "8Silver_8Silver_0",
      "primitives": [
        {
          "attributes": {
            "NORMAL": 131,
            "POSITION": 130,
            "TANGENT": 132,
            "TEXCOORD_0": 133
          },
          "indices": 134,
          "material": 26,
          "mode": 4
        }
      ]
    },
    {
      "name": "8TieDye_8TieDye_0",
      "primitives": [
        {
          "attributes": {
            "NORMAL": 136,
            "POSITION": 135,
            "TANGENT": 137,
            "TEXCOORD_0": 138
          },
          "indices": 139,
          "material": 27,
          "mode": 4
        }
      ]
    },
    {
      "name": "8Yellow_8Yellow_0",
      "primitives": [
        {
          "attributes": {
            "NORMAL": 141,
            "POSITION": 140,
            "TANGENT": 142,
            "TEXCOORD_0": 143
          },
          "indices": 144,
          "material": 28,
          "mode": 4
        }
      ]
    },
    {
      "name": "8white_8White_0",
      "primitives": [
        {
          "attributes": {
            "NORMAL": 146,
            "POSITION": 145,
            "TANGENT": 147,
            "TEXCOORD_0": 148
          },
          "indices": 149,
          "material": 29,
          "mode": 4
        }
      ]
    }
  ],
  "nodes": [
    {
      "children": [
        1
      ],
      "matrix": [
        1.0,
        0.0,
        0.0,
        0.0,
        0.0,
        2.220446049250313e-16,
        -1.0,
        0.0,
        0.0,
        1.0,
        2.220446049250313e-16,
        0.0,
        0.0,
        0.0,
        0.0,
        1.0
      ],
      "name": "Sketchfab_model"
    },
    {
      "children": [
        2
      ],
      "matrix": [
        0.009999999776482582,
        0.0,
        0.0,
        0.0,
        0.0,
        0.0,
        0.009999999776482582,
        0.0,
        0.0,
        -0.009999999776482582,
        0.0,
        0.0,
        0.0,
        0.0,
        0.0,
        1.0
      ],
      "name": "1d8a20020cda4bbd80c32628791145b7.fbx"
    },
    {
      "children": [
        3,
        5,
        7,
        9,
        11,
        13,
        15,
        17,
        19,
        21,
        23,
        25,
        27,
        29,
        31,
        33,
        35,
        37,
        39,
        41,
        43,
        45,
        47,
        49,
        51,
        53,
        55,
        57,
        59,
        61
      ],
      "name": "RootNode"
    },
    {
      "children": [
        4
      ],
      "matrix": [
        100.0,
        0.0,
        0.0,
        0.0,
        0.0,
        -1.629206793918314e-05,
        -99.99999999999868,
        0.0,
        0.0,
        99.99999999999868,
        -1.629206793918314e-05,
        0.0,
        0.0,
        0.0,
        -182.427001953125,
        1.0
      ],
      "name": "10Red"
    },
    {
      "mesh": 0,
      "name": "10Red_10Red_0"
    },
    {
      "children": [
        6
      ],
      "matrix": [
        100.0,
        0.0,
        0.0,
        0.0,
        0.0,
        -1.629206793918314e-05,
        -99.99999999999868,
        0.0,
        0.0,
        99.99999999999868,
        -1.629206793918314e-05,
        0.0,
        0.0,
        0.0,
        -379.1399841308594,
        1.0
      ],
      "name": "10Silver"
    },
    {
      "mesh": 1,
      "name": "10Silver_10Silver_0"
    },
    {
      "children": [
        8
      ],
      "matrix": [
        100.0,
        0.0,
        0.0,
        0.0,
        0.0,
        -1.629206793918314e-05,
        -99.99999999999868,
        0.0,
        0.0,
        99.99999999999868,
        -1.629206793918314e-05,
        0.0,
        0.0,
        0.0,
        -563.6179809570313,
        1.0
      ],
      "name": "10TieDye"
    },
    {
      "mesh": 2,
      "name": "10TieDye_10TieDye_0"
    },
    {
      "children": [
        10
      ],
      "matrix": [
        100.0,
        0.0,
        0.0,
        0.0,
        0.0,
        -1.629206793918314e-05,
        -99.99999999999868,
        0.0,
        0.0,
        99.99999999999868,
        -1.629206793918314e-05,
        0.0,
        0.0,
        0.0,
        -760.655029296875,
        1.0
      ],
      "name": "10White"
    },
    {
      "mesh": 3,
      "name": "10White_10White_0"
    },
    {
      "children": [
        12
      ],
      "matrix": [
        100.0,
        0.0,
        0.0,
        0.0,
        0.0,
        -1.629206793918314e-05,
        -99.99999999999868,
        0.0,
        0.0,
        99.99999999999868,
        -1.629206793918314e-05,
        0.0,
        0.0,
        0.0,
        0.0,
        1.0
      ],
      "name": "10Yellow"
    },
    {
      "mesh": 4,
      "name": "10Yellow_10Yellow_0"
    },
    {
      "children": [
        14
      ],
      "matrix": [
        76.06864929199219,
        0.0,
        0.0,
        0.0,
        0.0,
        -1.2393156023070323e-05,
        -76.06864929199118,
        0.0,
        0.0,
        76.06864929199118,
        -1.2393156023070323e-05,
        0.0,
        0.0,
        -205.47239685058594,
        -182.427001953125,
        1.0
      ],
      "name": "12Red"
    },
    {
      "mesh": 5,
      "name": "12Red_12Red_0"
    },
    {
      "children": [
        16
      ],
      "matrix": [
        76.06864929199219,
        0.0,
        0.0,
        0.0,
        0.0,
        -1.2393156023070323e-05,
        -76.06864929199118,
        0.0,
        0.0,
        76.06864929199118,
        -1.2393156023070323e-05,
        0.0,
        0.0,
        -205.47239685058594,
        -379.1399841308594,
        1.0
      ],
      "name": "12Silver"
    },
    {
      "mesh": 6,
      "name": "12Silver_12Silver_0"
    },
    {
      "children": [
        18
      ],
      "matrix": [
        76.06864929199219,
        0.0,
        0.0,
        0.0,
        0.0,
        -1.2393156023070323e-05,
        -76.06864929199118,
        0.0,
        0.0,
        76.06864929199118,
        -1.2393156023070323e-05,
        0.0,
        0.0,
        -205.47239685058594,
        -563.6179809570313,
        1.0
      ],
      "name": "12TieDye"
    },
    {
      "mesh": 7,
      "name": "12TieDye_12TieDye_0"
    },
    {
      "children": [
        20
      ],
      "matrix": [
        76.06864929199219,
        0.0,
        0.0,
        0.0,
        0.0,
        -1.2393156023070323e-05,
        -76.06864929199118,
        0.0,
        0.0,
        76.06864929199118,
        -1.2393156023070323e-05,
        0.0,
        0.0,
        -205.47239685058594,
        -760.655029296875,
        1.0
      ],
      "name": "12White"
    },
    {
      "mesh": 8,
      "name": "12White_12White_0"
    },
    {
      "children": [
        22
      ],
      "matrix": [
        76.06864929199219,
        0.0,
        0.0,
        0.0,
        0.0,
        -1.2393156023070323e-05,
        -76.06864929199118,
        0.0,
        0.0,
        76.06864929199118,
        -1.2393156023070323e-05,
        0.0,
        0.0,
        -205.47239685058594,
        0.0,
        1.0
      ],
      "name": "12Yellow"
    },
    {
      "mesh": 9,
      "name": "12Yellow_12Yellow_0"
    },
    {
      "children": [
        24
      ],
      "matrix": [
        80.79778289794922,
        0.0,
        0.0,
        0.0,
        0.0,
        -1.3163629683087584e-05,
        -80.79778289794815,
        0.0,
        0.0,
        80.79778289794815,
        -1.3163629683087584e-05,
        0.0,
        0.0,
        0.0,
        -182.427001953125,
        1.0
      ],
      "name": "20Red"
    },
    {
      "mesh": 10,
      "name": "20Red_20Red_0"
    },
    {
      "children": [
        26
      ],
      "matrix": [
        80.79778289794922,
        0.0,
        0.0,
        0.0,
        0.0,
        -1.3163629683087584e-05,
        -80.79778289794815,
        0.0,
        0.0,
        80.79778289794815,
        -1.3163629683087584e-05,
        0.0,
        0.0,
        0.0,
        -379.1399841308594,
        1.0
      ],
      "name": "20Silver"
    },
    {
      "mesh": 11,
      "name": "20Silver_20Silver_0"
    },
    {
      "children": [
        28
      ],
      "matrix": [
        80.79778289794922,
        0.0,
        0.0,
        0.0,
        0.0,
        -1.3163629683087584e-05,
        -80.79778289794815,
        0.0,
        0.0,
        80.79778289794815,
        -1.3163629683087584e-05,
        0.0,
        0.0,
        0.0,
        -563.6179809570313,
        1.0
      ],
      "name": "20TieDye"
    },
    {
      "mesh": 12,
      "name": "20TieDye_20TieDye_0"
    },
    {
      "children": [
        30
      ],
      "matrix": [
        80.79778289794922,
        0.0,
        0.0,
        0.0,
        0.0,
        -1.3163629683087584e-05,
        -80.79778289794815,
        0.0,
        0.0,
        80.79778289794815,
        -1.3163629683087584e-05,
        0.0,
        0.0,
        0.0,
        -760.655029296875,
        1.0
      ],
      "name": "20White"
    },
    {
      "mesh": 13,
      "name": "20White_20White_0"
    },
    {
      "children": [
        32
      ],
      "matrix": [
        80.79778289794922,
        0.0,
        0.0,
        0.0,
        0.0,
        -1.3163629683087584e-05,
        -80.79778289794815,
        0.0,
        0.0,
        80.79778289794815,
        -1.3163629683087584e-05,
        0.0,
        0.0,
        0.0,
        0.0,
        1.0
      ],
      "name": "20Yellow"
    },
    {
      "mesh": 14,
      "name": "20Yellow_20Yellow_0"
    },
    {
      "children": [
        34
      ],
      "matrix": [
        100.0,
        0.0,
        0.0,
        0.0,
        0.0,
        -1.629206793918314e-05,
        -99.99999999999868,
        0.0,
        0.0,
        99.99999999999868,
        -1.629206793918314e-05,
        0.0,
        0.0,
        -1011.3876342773438,
        -182.427001953125,
        1.0
      ],
      "name": "4Red"
    },
    {
      "mesh": 15,
      "name": "4Red_4Red_0"
    },
    {
      "children": [
        36
      ],
      "matrix": [
        100.0,
        0.0,
        0.0,
        0.0,
        0.0,
        -1.629206793918314e-05,
        -99.99999999999868,
        0.0,
        0.0,
        99.99999999999868,
        -1.629206793918314e-05,
        0.0,
        0.0,
        -1011.3876342773438,
        -379.1399841308594,
        1.0
      ],
      "name": "4Silver"
    },
    {
      "mesh": 16,
      "name": "4Silver_4Silver_0"
    },
    {
      "children": [
        38
      ],
      "matrix": [
        100.0,
        0.0,
        0.0,
        0.0,
        0.0,
        -1.629206793918314e-05,
        -99.99999999999868,
        0.0,
        0.0,
        99.99999999999868,
        -1.629206793918314e-05,
        0.0,
        0.0,
        -1011.3876342773438,
        -563.6179809570313,
        1.0
      ],
      "name": "4TieDye"
    },
    {
      "mesh": 17,
      "name": "4TieDye_4TieDye_0"
    },
    {
      "children": [
        40
      ],
      "matrix": [
        100.0,
        0.0,
        0.0,
        0.0,
        0.0,
        -1.629206793918314e-05,
        -99.99999999999868,
        0.0,
        0.0,
        99.99999999999868,
        -1.629206793918314e-05,
        0.0,
        0.0,
        -1011.3876342773438,
        0.0,
        1.0
      ],
      "name": "4Yellow"
    },
    {
      "mesh": 18,
      "name": "4Yellow_4Yellow_0"
    },
    {
      "children": [
        42
      ],
      "matrix": [
        100.0,
        0.0,
        0.0,
        0.0,
        0.0,
        -1.629206793918314e-05,
        -99.99999999999868,
        0.0,
        0.0,
        99.99999999999868,
        -1.629206793918314e-05,
        0.0,
        0.0,
        -1011.3876342773438,
        -760.655029296875,
        1.0
      ],
      "name": "4white"
    },
    {
      "mesh": 19,
      "name": "4white_4White_0"
    },
    {
      "children": [
        44
      ],
      "matrix": [
        58.58020782470703,
        0.0,
        0.0,
        0.0,
        0.0,
        -9.543927257715948e-06,
        -58.58020782470626,
        0.0,
        0.0,
        58.58020782470626,
        -9.543927257715948e-06,
        0.0,
        0.0,
        -788.5301513671875,
        -182.427001953125,
        1.0
      ],
      "name": "6Red"
    },
    {
      "mesh": 20,
      "name": "6Red_6Red_0"
    },
    {
      "children": [
        46
      ],
      "matrix": [
        58.58020782470703,
        0.0,
        0.0,
        0.0,
        0.0,
        -9.543927257715948e-06,
        -58.58020782470626,
        0.0,
        0.0,
        58.58020782470626,
        -9.543927257715948e-06,
        0.0,
        0.0,
        -788.5301513671875,
        -379.1399841308594,
        1.0
      ],
      "name": "6Silver"
    },
    {
      "mesh": 21,
      "name": "6Silver_6Silver_0"
    },
    {
      "children": [
        48
      ],
      "matrix": [
        58.58020782470703,
        0.0,
        0.0,
        0.0,
        0.0,
        -9.543927257715948e-06,
        -58.58020782470626,
        0.0,
        0.0,
        58.58020782470626,
        -9.543927257715948e-06,
        0.0,
        0.0,
        -788.5301513671875,
        -563.6179809570313,
        1.0
      ],
      "name": "6TieDye"
    },
    {
      "mesh": 22,
      "name": "6TieDye_6TieDye_0"
    },
    {
      "children": [
        50
      ],
      "matrix": [
        58.58020782470703,
        0.0,
        0.0,
        0.0,
        0.0,
        -9.543927257715948e-06,
        -58.58020782470626,
        0.0,
        0.0,
        58.58020782470626,
        -9.543927257715948e-06,
        0.0,
        0.0,
        -788.5301513671875,
        -760.655029296875,
        1.0
      ],
      "name": "6White"
    },
    {
      "mesh": 23,
      "name": "6White_6White_0"
    },
    {
      "children": [
        52
      ],
      "matrix": [
        58.58020782470703,
        0.0,
        0.0,
        0.0,
        0.0,
        -9.543927257715948e-06,
        -58.58020782470626,
        0.0,
        0.0,
        58.58020782470626,
        -9.543927257715948e-06,
        0.0,
        0.0,
        -788.5301513671875,
        0.0,
        1.0
      ],
      "name": "6Yellow"
    },
    {
      "mesh": 24,
      "name": "6Yellow_6Yellow_0"
    },
    {
      "children": [
        54
      ],
      "matrix": [
        86.89207458496094,
        0.0,
        0.0,
        0.0,
        0.0,
        6.560169122938896e-06,
        -86.89207458496068,
        0.0,
        0.0,
        86.89207458496068,
        6.560169122938896e-06,
        0.0,
        0.0,
        -585.5142822265625,
        -182.427001953125,
        1.0
      ],
      "name": "8Red"
    },
    {
      "mesh": 25,
      "name": "8Red_8Red_0"
    },
    {
      "children": [
        56
      ],
      "matrix": [
        86.89207458496094,
        0.0,
        0.0,
        0.0,
        0.0,
        6.560169122938896e-06,
        -86.89207458496068,
        0.0,
        0.0,
        86.89207458496068,
        6.560169122938896e-06,
        0.0,
        0.0,
        -585.5142822265625,
        -379.1399841308594,
        1.0
      ],
      "name": "8Silver"
    },
    {
      "mesh": 26,
      "name": "8Silver_8Silver_0"
    },
    {
      "children": [
        58
      ],
      "matrix": [
        86.89207458496094,
        0.0,
        0.0,
        0.0,
        0.0,
        6.560169122938896e-06,
        -86.89207458496068,
        0.0,
        0.0,
        86.89207458496068,
        6.560169122938896e-06,
        0.0,
        0.0,
        -585.5142822265625,
        -563.6179809570313,
        1.0
      ],
      "name": "8TieDye"
    },
    {
      "mesh": 27,
      "name": "8TieDye_8TieDye_0"
    },
    {
      "children": [
        60
      ],
      "matrix": [
        86.89207458496094,
        0.0,
        0.0,
        0.0,
        0.0,
        6.560169122938896e-06,
        -86.89207458496068,
        0.0,
        0.0,
        86.89207458496068,
        6.560169122938896e-06,
        0.0,
        0.0,
        -585.5142822265625,
        0.0,
        1.0
      ],
      "name": "8Yellow"
    },
    {
      "mesh": 28,
      "name": "8Yellow_8Yellow_0"
    },
    {
      "children": [
        62
      ],
      "matrix": [
        86.89207458496094,
        0.0,
        0.0,
        0.0,
        0.0,
        6.560169122938896e-06,
        -86.89207458496068,
        0.0,
        0.0,
        86.89207458496068,
        6.560169122938896e-06,
        0.0,
        0.0,
        -585.5142822265625,
        -760.655029296875,
        1.0
      ],
      "name": "8white"
    },
    {
      "mesh": 29,
      "name": "8white_8White_0"
    }
  ],
  "samplers": [
    {
      "magFilter": 9729,
      "minFilter": 9987,
      "wrapS": 10497,
      "wrapT": 10497
    }
  ],
  "scene": 0,
  "scenes": [
    {
      "name": "Sketchfab_Scene",
      "nodes": [
        0
      ]
    }
  ],
  "textures": [
    {
      "sampler": 0,
      "source": 0
    },
    {
      "sampler": 0,
      "source": 1
    },
    {
      "sampler": 0,
      "source": 2
    },
    {
      "sampler": 0,
      "source": 3
    },
    {
      "sampler": 0,
      "source": 4
    },
    {
      "sampler": 0,
      "source": 5
    },
    {
      "sampler": 0,
      "source": 6
    },
    {
      "sampler": 0,
      "source": 7
    },
    {
      "sampler": 0,
      "source": 8
    },
    {
      "sampler": 0,
      "source": 9
    },
    {
      "sampler": 0,
      "source": 10
    },
    {
      "sampler": 0,
      "source": 11
    },
    {
      "sampler": 0,
      "source": 12
    },
    {
      "sampler": 0,
      "source": 13
    },
    {
      "sampler": 0,
      "source": 14
    },
    {
      "sampler": 0,
      "source": 15
    },
    {
      "sampler": 0,
      "source": 16
    },
    {
      "sampler": 0,
      "source": 17
    },
    {
      "sampler": 0,
      "source": 18
    },
    {
      "sampler": 0,
      "source": 19
    },
    {
      "sampler": 0,
      "source": 20
    },
    {
      "sampler": 0,
      "source": 21
    },
    {
      "sampler": 0,
      "source": 22
    },
    {
      "sampler": 0,
      "source": 23
    },
    {
      "sampler": 0,
      "source": 24
    },
    {
      "sampler": 0,
      "source": 25
    },
    {
      "sampler": 0,
      "source": 26
    },
    {
      "sampler": 0,
      "source": 27
    },
    {
      "sampler": 0,
      "source": 28
    },
    {
      "sampler": 0,
      "source": 29
    },
    {
      "sampler": 0,
      "source": 30
    },
    {
      "sampler": 0,
      "source": 31
    },
    {
      "sampler": 0,
      "source": 32
    },
    {
      "sampler": 0,
      "source": 33
    },
    {
      "sampler": 0,
      "source": 34
    },
    {
      "sampler": 0,
      "source": 35
    },
    {
      "sampler": 0,
      "source": 36
    },
    {
      "sampler": 0,
      "source": 37
    },
    {
      "sampler": 0,
      "source": 38
    },
    {
      "sampler": 0,
      "source": 39
    },
    {
      "sampler": 0,
      "source": 40
    },
    {
      "sampler": 0,
      "source": 41
    },
    {
      "sampler": 0,
      "source": 42
    },
    {
      "sampler": 0,
      "source": 43
    },
    {
      "sampler": 0,
      "source": 44
    },
    {
      "sampler": 0,
      "source": 45
    },
    {
      "sampler": 0,
      "source": 46
    },
    {
      "sampler": 0,
      "source": 47
    },
    {
      "sampler": 0,
      "source": 48
    },
    {
      "sampler": 0,
      "source": 49
    }
  ]
}
